<?xml version="1.0" standalone="no"?>
<!DOCTYPE svg PUBLIC "-//W3C//DTD SVG 1.1//EN" "http://www.w3.org/Graphics/SVG/1.1/DTD/svg11.dtd" >
<svg xmlns="http://www.w3.org/2000/svg">
<metadata></metadata>
<defs>
<font id="cairoregular" horiz-adv-x="1146" >
<font-face units-per-em="2048" ascent="1638" descent="-410" />
<missing-glyph horiz-adv-x="450" />
<glyph horiz-adv-x="0" />
<glyph horiz-adv-x="0" />
<glyph unicode="&#xd;" horiz-adv-x="481" />
<glyph unicode=" "  horiz-adv-x="450" />
<glyph unicode="&#x09;" horiz-adv-x="450" />
<glyph unicode="&#xa0;" horiz-adv-x="450" />
<glyph unicode="!" horiz-adv-x="505" d="M170 0v229h168v-229h-168zM172 1417h162l-10 -950h-142z" />
<glyph unicode="&#x22;" horiz-adv-x="763" d="M137 1417h154l-10 -454h-138zM475 1417h154l-11 -454h-137z" />
<glyph unicode="#" d="M49 356v131h227v381h-227v131h227v365h140v-365h315v365h139v-365h228v-131h-228v-381h228v-131h-228v-356h-139v356h-315v-356h-140v356h-227zM416 487h315v381h-315v-381z" />
<glyph unicode="$" d="M141 1010q0 199 105.5 280.5t328.5 81.5l48 -2l34 264h105l-35 -270q133 -12 213 -25l43 -6l-12 -127l-58 6q-150 16 -202 21l-62 -477q139 -33 216 -73t112 -106.5t35 -179.5q0 -416 -432 -415h-31l-29 -236q-104 6 -104 14l28 228q-92 8 -260 32l-32 5l16 125 q156 -20 293 -31l67 512q-147 35 -229 78t-120 113.5t-38 187.5zM293 1018q0 -74 23.5 -117t76.5 -70.5t154 -52.5l59 461q-172 0 -242.5 -47t-70.5 -174zM567 115q150 0 221.5 67.5t71.5 204.5q0 72 -21.5 113t-69.5 64.5t-138 45.5z" />
<glyph unicode="%" d="M57 1092q0 281 226 280q225 0 225 -280q0 -145 -58.5 -218t-166.5 -73q-109 0 -167.5 72.5t-58.5 218.5zM182 1094q0 -188 103 -189q51 0 75.5 46t24.5 143q0 90 -23.5 132t-76.5 42t-78 -42t-25 -132zM317 -8l420 1403l99 -33l-420 -1399zM641 270q0 281 225 281 q223 0 224 -279q0 -145 -58.5 -218.5t-167.5 -73.5q-106 0 -164.5 73.5t-58.5 216.5zM764 272q0 -98 24.5 -143t77.5 -45q54 0 77.5 45t23.5 139t-22.5 136t-78.5 42q-55 0 -78.5 -40.5t-23.5 -133.5z" />
<glyph unicode="&#x26;" horiz-adv-x="1409" d="M86 414q0 176 76 269t241 146q-61 68 -88.5 133.5t-27.5 149.5q0 160 93 242t265 82q174 0 263 -80t89 -236q0 -133 -71.5 -219t-243.5 -164l311 -307q45 129 58 332l149 -2q-29 -262 -94 -426l264 -250l-92 -102l-248 231q-82 -131 -189.5 -182t-267.5 -51 q-256 0 -371.5 110.5t-115.5 323.5zM242 426q0 -156 82 -231.5t247 -75.5q131 0 218.5 46t134.5 138l-432 430q-133 -41 -191.5 -109.5t-58.5 -197.5zM440 1112q0 -127 92 -225l60 -58q139 60 195.5 120.5t56.5 158.5q0 195 -201 195q-203 0 -203 -191z" />
<glyph unicode="'" horiz-adv-x="425" d="M137 1417h154l-10 -454h-138z" />
<glyph unicode="(" horiz-adv-x="540" d="M104 621q0 397 213 915h148q-76 -203 -135.5 -475.5t-59.5 -456.5q0 -170 52.5 -394t142.5 -466h-148q-213 482 -213 877z" />
<glyph unicode=")" horiz-adv-x="540" d="M76 -256q98 268 145 475t47 383q0 209 -57 466t-135 468h147q213 -520 213 -915t-213 -877h-147z" />
<glyph unicode="*" horiz-adv-x="860" d="M111 938l221 162l-217 157l63 86l217 -159l84 258l101 -33l-82 -260h266v-102h-270l84 -256l-101 -31l-84 258l-219 -162z" />
<glyph unicode="+" d="M113 444v140h387v399h143v-399h391v-140h-391v-403h-143v403h-387z" />
<glyph unicode="," horiz-adv-x="456" d="M70 -252l94 471h170l-137 -471h-127z" />
<glyph unicode="-" horiz-adv-x="897" d="M139 492v143h621v-143h-621z" />
<glyph unicode="." horiz-adv-x="442" d="M137 0v233h168v-233h-168z" />
<glyph unicode="/" horiz-adv-x="843" d="M66 20l577 1430l137 -51l-577 -1428z" />
<glyph unicode="0" d="M80 676q0 254 54 407.5t163 222t276 68.5q250 0 371 -161.5t121 -536.5q0 -254 -54.5 -407.5t-163 -221t-274.5 -67.5q-167 0 -276 67.5t-163 221t-54 407.5zM244 676q0 -209 34.5 -331t106.5 -174t188 -52q117 0 189 52t106.5 174t34.5 331t-34.5 330.5t-106.5 174 t-189 52.5t-188.5 -52.5t-106 -174t-34.5 -330.5z" />
<glyph unicode="1" d="M219 1065l430 287h148v-1352h-158v1176l-348 -230z" />
<glyph unicode="2" d="M141 0v133l396 416q94 98 146 158.5t89 134t37 151.5q0 129 -69.5 183.5t-225.5 54.5q-129 0 -297 -35l-53 -10l-12 131q193 55 401 55q211 0 314.5 -88t103.5 -274q0 -139 -61.5 -246t-221.5 -260l-360 -367h678v-137h-865z" />
<glyph unicode="3" d="M127 35l14 129q233 -49 369 -49q158 0 248 59t90 207q0 246 -279 254h-272v135h272q59 0 115.5 32t93.5 89t37 129q0 113 -64.5 163t-211.5 50q-164 0 -324 -31l-53 -10l-15 125q190 57 414 57q219 0 317.5 -84t98.5 -268q0 -100 -53.5 -184t-147.5 -123q84 -31 133 -68 t75 -99.5t26 -160.5q0 -209 -106.5 -308t-332.5 -99q-176 -1 -381 40z" />
<glyph unicode="4" d="M82 264v123l385 965h172l-391 -949h489v422h158v-422h172v-139h-172v-264h-158v264h-655z" />
<glyph unicode="5" d="M129 41l18 125q231 -45 398 -45q158 0 240.5 82t82.5 233q0 145 -72.5 210t-213.5 65q-68 0 -149 -19.5t-130 -42.5l-43 -20l-108 20l36 703h789v-144h-658l-36 -440q158 84 317 84q430 0 430 -399q0 -227 -117.5 -349t-334.5 -122q-176 0 -381 45z" />
<glyph unicode="6" d="M102 682q0 348 136.5 519t392.5 171q166 0 315 -24l55 -11l-14 -129q-184 25 -358 25t-268.5 -121t-94.5 -346l51 20q59 23 143.5 41.5t143.5 18.5q455 0 455 -420q0 -215 -124 -330.5t-349 -115.5q-484 0 -484 702zM264 627q2 -240 81 -374t233 -134q155 0 236 78.5 t81 224.5q0 141 -78 212t-223 71q-63 0 -145 -18.5t-138 -39.5z" />
<glyph unicode="7" d="M158 1208v144h839v-207l-520 -1165l-149 47l510 1128v53h-680z" />
<glyph unicode="8" d="M66 344q0 139 53 216t180 147q-113 57 -162 127.5t-49 189.5q0 174 129 262q125 88 352 88q229 0 359.5 -91t130.5 -261q0 -125 -49 -191.5t-176 -123.5q129 -57 187 -133t58 -207q0 -387 -506 -387q-507 -1 -507 364zM233 371q0 -248 340 -248q338 0 338 260 q0 104 -56 157.5t-183 90.5h-215q-115 -31 -169.5 -92.5t-54.5 -167.5zM256 1006q0 -90 48 -145.5t153 -92.5h215q113 37 166 92t53 144q0 227 -318 227q-317 0 -317 -225z" />
<glyph unicode="9" d="M84 924q0 207 127 327.5t342 120.5q489 0 489 -721q0 -350 -133 -510.5t-403 -160.5q-150 -1 -318 28l-53 8l15 127q184 -25 356 -24q369 0 373 471q-209 -78 -353 -78q-442 0 -442 412zM248 924q0 -272 291 -273q126 1 288 56l54 18q-6 508 -328 508q-143 0 -224 -83 t-81 -226z" />
<glyph unicode=":" horiz-adv-x="444" d="M137 0v233h168v-233h-168zM137 659v234h168v-234h-168z" />
<glyph unicode=";" horiz-adv-x="507" d="M98 -252l95 471h169l-137 -471h-127zM178 659v234h168v-234h-168z" />
<glyph unicode="&#x3c;" d="M125 446v136l852 415v-159l-694 -322l694 -328v-161z" />
<glyph unicode="=" d="M131 254v141h885v-141h-885zM131 633v141h885v-141h-885z" />
<glyph unicode="&#x3e;" d="M168 27v161l694 328l-694 322v159l852 -415v-136z" />
<glyph unicode="?" horiz-adv-x="915" d="M84 1376q205 61 342 62q213 0 313.5 -78t100.5 -250q0 -92 -14.5 -147.5t-52.5 -102.5t-114 -110q-113 -94 -152.5 -147.5t-39.5 -119.5v-71h-129q-27 53 -27 125q0 66 44 125t155 155q76 66 110.5 106t49 82t14.5 105q0 96 -65.5 142t-206.5 46q-88 0 -318 -47zM315 2 v229h168v-229h-168z" />
<glyph unicode="@" horiz-adv-x="2000" d="M104 535q0 485 232.5 715.5t695.5 230.5q455 0 667 -209t212 -647v-27q0 -242 -39 -374t-114 -184t-197 -52q-197 0 -250 123q-201 -121 -357 -121q-172 0 -266 105.5t-94 381.5q0 201 41 323t131 178t244 56q90 0 198 -39l37 -14v33h154v-391q0 -354 22 -426 q16 -41 37 -57.5t42.5 -19.5t70.5 -3q84 0 124 67.5t50 166t10 247.5v29q0 256 -73.5 412.5t-231.5 231.5t-420 75q-395 0 -582.5 -196t-187.5 -626q0 -293 79 -468t247 -256t446 -81l293 21l6 -137q-193 -18 -299 -19q-244 0 -406.5 46t-281.5 153q-240 209 -240 752z M750 500q0 -375 215 -375q90 0 299 94q-18 111 -19 354v285q-127 41 -211 41q-111 0 -172 -41t-86.5 -127t-25.5 -231z" />
<glyph unicode="A" horiz-adv-x="1220" d="M49 0l389 1417h344l389 -1417h-155l-103 365h-606l-102 -365h-156zM342 506h537l-215 776h-107z" />
<glyph unicode="B" horiz-adv-x="1261" d="M174 0v1417h514q215 0 318.5 -89t103.5 -277q0 -125 -45 -200t-137 -120q115 -41 170 -123t55 -221q0 -201 -111.5 -294t-326.5 -93h-541zM332 139h377q139 0 211.5 59.5t72.5 192.5q0 143 -79.5 201.5t-215.5 58.5h-366v-512zM332 788h364q129 0 190.5 62.5t61.5 187.5 q0 127 -63.5 183.5t-202.5 56.5h-350v-490z" />
<glyph unicode="C" horiz-adv-x="1114" d="M121 709q0 254 43 410.5t156.5 237.5t326.5 81q166 0 383 -45l-6 -133q-202 36 -348 36h-8q-160 0 -242 -57t-111.5 -184t-29.5 -369q0 -209 27.5 -326.5t113.5 -178t260 -60.5q141 0 338 37l6 -135q-211 -43 -373 -43q-217 0 -333.5 80.5t-159.5 236.5t-43 412z" />
<glyph unicode="D" horiz-adv-x="1320" d="M174 0v1417h506q215 0 330.5 -94t154.5 -239.5t39 -340.5q0 -389 -128 -566t-396 -177h-506zM332 139h348q362 0 362 590q0 287 -88 418t-274 131h-348v-1139z" />
<glyph unicode="E" horiz-adv-x="1132" d="M174 0v1417h862v-139h-704v-490h581v-137h-581v-512h704v-139h-862z" />
<glyph unicode="F" horiz-adv-x="1077" d="M174 0v1417h848v-139h-690v-553h583v-139h-583v-586h-158z" />
<glyph unicode="G" horiz-adv-x="1261" d="M117 709q0 254 52 413.5t171 237.5t322 78q184 0 395 -41l69 -13l-6 -131q-254 43 -440 43q-156 0 -243 -58t-121.5 -184t-34.5 -345t34.5 -345t120.5 -185.5t242 -59.5q137 0 293 28v437h-236v141h391v-696q-258 -49 -460 -49q-205 0 -325 77.5t-172 236.5t-52 415z" />
<glyph unicode="H" horiz-adv-x="1382" d="M174 0v1417h158v-635h721v635h155v-1417h-155v641h-721v-641h-158z" />
<glyph unicode="I" horiz-adv-x="503" d="M174 0v1417h158v-1417h-158z" />
<glyph unicode="J" horiz-adv-x="591" d="M37 -6q106 0 151 14.5t62.5 59.5t17.5 149v1200h156l2 -1222q0 -156 -44 -230t-122 -93t-223 -19v141z" />
<glyph unicode="K" horiz-adv-x="1165" d="M174 0v1417h158v-659l233 8l363 651h180l-406 -712l428 -705h-186l-377 627l-235 -9v-618h-158z" />
<glyph unicode="L" horiz-adv-x="980" d="M174 0v1417h158v-1276h622v-141h-780z" />
<glyph unicode="M" horiz-adv-x="1720" d="M174 0v1417h285l401 -1200l402 1200h284v-1417h-157v1249h-29l-412 -1198h-176l-412 1198h-28v-1249h-158z" />
<glyph unicode="N" horiz-adv-x="1384" d="M174 0v1417h295l545 -1278h41v1278h155v-1417h-288l-551 1278h-39v-1278h-158z" />
<glyph unicode="O" horiz-adv-x="1351" d="M117 702q0 256 53 417t176 240t330 79t329.5 -79t177 -240t54.5 -421t-52 -415.5t-174 -229t-333 -73.5t-334 75.5t-175 232t-52 414.5zM279 702q0 -215 34.5 -340.5t121.5 -184t243 -58.5t241 57t119.5 181t34.5 341t-36 346.5t-122 191.5t-239 62q-154 0 -240 -61 t-121.5 -190t-35.5 -345z" />
<glyph unicode="P" horiz-adv-x="1214" d="M174 0v1417h518q231 0 342 -111.5t111 -344.5q0 -483 -453 -484h-360v-477h-158zM332 616h358q293 0 293 345q0 166 -69.5 241.5t-223.5 75.5h-358v-662z" />
<glyph unicode="Q" horiz-adv-x="1351" d="M117 702q0 256 53 417t176 240t330 79t329.5 -79t177 -240t54.5 -417q0 -264 -54.5 -419.5t-181.5 -229.5l175 -280l-148 -70l-180 295q-68 -18 -172 -18q-211 0 -333 75.5t-174 232t-52 414.5zM279 702q0 -215 34.5 -340.5t121.5 -184t243 -58.5t241 57t119.5 181 t34.5 341t-36 346.5t-122 191.5t-239 62q-154 0 -240 -61t-121.5 -190t-35.5 -345z" />
<glyph unicode="R" horiz-adv-x="1261" d="M174 0v1417h524q227 0 340 -105.5t113 -324.5q0 -330 -260 -412l272 -575h-174l-256 543h-401v-543h-158zM332 682h368q289 0 289 299q0 297 -291 297h-366v-596z" />
<glyph unicode="S" horiz-adv-x="1110" d="M98 1059q0 381 457 381q158 0 428 -41l-14 -133q-287 34 -398 34h-6q-307 0 -307 -231q0 -88 29.5 -134t101.5 -75t227 -63q152 -35 235 -78t122 -113.5t39 -187.5q0 -436 -453 -436h-8q-142 0 -367 34l-73 11l16 131q281 -37 424 -37q303 0 303 285q0 78 -27.5 122.5 t-94 73.5t-193.5 53q-168 35 -261.5 80t-136.5 121t-43 203z" />
<glyph unicode="T" horiz-adv-x="1077" d="M27 1276v141h1024v-141h-433v-1276h-155v1276h-436z" />
<glyph unicode="U" horiz-adv-x="1318" d="M164 430v987h158v-991q0 -307 331 -307q174 0 260 73.5t86 233.5v991h156v-987q0 -233 -124 -341.5t-374 -108.5q-249 0 -371 107.5t-122 342.5z" />
<glyph unicode="V" horiz-adv-x="1191" d="M49 1417h164l326 -1278h114l326 1278h164l-371 -1417h-352z" />
<glyph unicode="W" horiz-adv-x="1814" d="M61 1417h164l242 -1278h59l289 1266h184l289 -1266h60l241 1278h162l-287 -1417h-288l-269 1210l-268 -1210h-289z" />
<glyph unicode="X" horiz-adv-x="1142" d="M39 0l438 694l-438 723h178l358 -606l361 606h170l-436 -719l436 -698h-178l-357 588l-362 -588h-170z" />
<glyph unicode="Y" horiz-adv-x="1101" d="M20 1417h179l352 -663l352 663h178l-450 -821v-596h-158v596z" />
<glyph unicode="Z" horiz-adv-x="1097" d="M88 -2v182l739 1053v45h-739v139h922v-184l-742 -1053v-41h742v-141h-922z" />
<glyph unicode="[" horiz-adv-x="673" d="M162 -252v1786h430v-137h-275v-1512h275v-137h-430z" />
<glyph unicode="\" horiz-adv-x="892" d="M61 1389l138 59l630 -1419l-137 -58z" />
<glyph unicode="]" horiz-adv-x="673" d="M82 -115h274v1512h-274v137h430v-1786h-430v137z" />
<glyph unicode="^" d="M119 653l379 699h137l391 -699h-164l-293 547l-286 -547h-164z" />
<glyph unicode="_" horiz-adv-x="1294" d="M209 -188h876v-136h-876v136z" />
<glyph unicode="`" horiz-adv-x="483" d="M-2 1384l53 132l443 -201l-43 -105z" />
<glyph unicode="a" horiz-adv-x="1026" d="M82 289q0 147 74.5 219t238.5 88l322 31v88q0 194 -166 194h-2q-166 0 -404 -26l-6 116q219 45 400 45q174 0 252.5 -78.5t78.5 -250.5v-525q6 -76 119 -90l-6 -120q-162 0 -244 81q-180 -81 -364 -81h-4q-142 0 -215.5 79.5t-73.5 229.5zM240 297q0 -188 155 -188 q138 0 275 47l47 16v338l-303 -29q-92 -8 -133 -53t-41 -131z" />
<glyph unicode="b" horiz-adv-x="1077" d="M147 2v1468h152v-497q158 71 307 71h4q135 0 213 -52t114 -166.5t36 -307.5q0 -211 -45 -325.5t-150.5 -162.5t-298.5 -48q-135 0 -274 14zM299 127q147 -10 197 -10q129 0 198.5 40t96 126t26.5 239q0 145 -22.5 228.5t-74.5 120t-145 36.5q-113 0 -276 -59v-721z" />
<glyph unicode="c" horiz-adv-x="892" d="M104 512q0 244 82 389.5t318 145.5q61 0 126.5 -6.5t178.5 -26.5l-6 -125q-162 18 -248 18q-117 0 -179.5 -35.5t-88 -120.5t-25.5 -243q0 -150 24.5 -232.5t89 -120.5t187.5 -38l242 18l6 -127q-190 -28 -288 -28h-7q-154 0 -244 54t-129 169.5t-39 308.5z" />
<glyph unicode="d" horiz-adv-x="1083" d="M102 494q0 293 101.5 421.5t335.5 128.5q117 0 243 -26v452h152v-1470h-152v70q-158 -90 -317 -90q-195 0 -279 125.5t-84 388.5zM260 506q0 -199 52.5 -294t181.5 -95q59 0 128.5 17.5t118.5 39.5l41 19v694q-128 24 -223 24h-8q-162 0 -226.5 -94t-64.5 -311z" />
<glyph unicode="e" horiz-adv-x="1034" d="M102 485q0 285 104.5 422t328.5 137q205 0 306 -117.5t101 -361.5l-8 -116h-676q0 -127 27.5 -199t94 -103.5t185.5 -31.5q59 0 137 3t142 9l59 6l4 -121q-220 -32 -368 -32h-9q-233 0 -330.5 121.5t-97.5 383.5zM256 571h532q0 186 -59 265t-194 79q-141 0 -209 -82.5 t-70 -261.5z" />
<glyph unicode="f" horiz-adv-x="677" d="M61 891v133h129v92q0 145 27 226t86 115t164 34l207 -14l-2 -127q-129 4 -159 5t-38 1q-76 0 -103.5 -61.5t-27.5 -180.5v-90h297v-133h-297v-891h-154v891h-129z" />
<glyph unicode="g" horiz-adv-x="1052" d="M102 -184q0 66 15.5 107.5t48.5 74.5t98 84q-29 18 -43 55t-14 78q0 27 12 58.5t57 111.5q-161 72 -161 304q0 181 96 268t291 87q94 0 209 -26l303 8v-131l-195 4q35 -35 51.5 -85t16.5 -128q0 -182 -94.5 -260t-296.5 -78q-63 0 -105 8q-16 -41 -26.5 -71.5 t-10.5 -53.5q0 -53 42 -69.5t130 -16.5h80q135 0 218 -20.5t128 -82.5t45 -181q0 -178 -110.5 -260t-364.5 -82q-229 0 -324.5 68.5t-95.5 228.5zM254 -164q0 -106 62.5 -147t220.5 -41q170 0 237.5 46t67.5 159q0 66 -22.5 99.5t-76 45.5t-153.5 12l-221 10 q-68 -49 -91.5 -85.5t-23.5 -98.5zM268 694q0 -121 54.5 -172t179.5 -51t178 51t53 174q0 121 -53 172.5t-176 51.5q-127 0 -181.5 -52.5t-54.5 -173.5z" />
<glyph unicode="h" horiz-adv-x="1099" d="M147 0v1470h154v-503q90 41 167 59t157 18q133 0 205.5 -48t102.5 -156.5t30 -298.5v-541h-154v537q0 152 -17.5 228.5t-65.5 109t-142 32.5q-117 0 -244 -47l-39 -14v-846h-154z" />
<glyph unicode="i" horiz-adv-x="446" d="M147 0v1024h152v-1024h-152zM147 0zM148 1255v178h151v-178h-151z" />
<glyph unicode="j" horiz-adv-x="448" d="M-100 -338q111 63 162 109.5t69.5 101.5t18.5 154v997h151v-999q0 -129 -28.5 -208t-99.5 -140.5t-212 -133.5zM0 0zM150 1255v178h151v-178h-151z" />
<glyph unicode="k" horiz-adv-x="980" d="M147 0v1470h154v-868l160 8l293 414h174l-334 -471l348 -553h-174l-305 475l-162 -6v-469h-154z" />
<glyph unicode="l" horiz-adv-x="473" d="M160 0v1470h153v-1470h-153z" />
<glyph unicode="m" horiz-adv-x="1712" d="M147 0v1024h152v-72q154 92 307 92q84 0 151.5 -25.5t106.5 -78.5q76 45 178.5 74.5t208.5 29.5q125 0 195 -50t99.5 -158.5t29.5 -294.5v-541h-154v537q0 145 -16 223t-60.5 112.5t-130.5 34.5q-70 0 -141.5 -17.5t-116.5 -39.5l-38 -19q26 -64 26 -283v-16v-532h-153 v528q0 152 -16.5 231t-59.5 113.5t-129 34.5q-68 0 -137.5 -17.5t-112.5 -39.5l-35 -19v-831h-154z" />
<glyph unicode="n" horiz-adv-x="1099" d="M147 0v1024h152v-72q92 51 169 71.5t161 20.5q131 0 202.5 -49t101.5 -156.5t30 -297.5v-541h-152v537q0 145 -17.5 223t-62.5 112.5t-131 34.5q-70 0 -142.5 -17.5t-117.5 -39.5l-39 -19v-831h-154z" />
<glyph unicode="o" horiz-adv-x="1081" d="M102 506q0 195 43 312.5t139.5 171.5t256.5 54q162 0 257 -55t138 -172t43 -311q0 -188 -41 -303t-136 -169t-261 -54q-164 0 -260.5 54t-137.5 168.5t-41 303.5zM260 506q0 -150 23.5 -234t84 -121.5t175.5 -37.5q112 0 171.5 37.5t83 120.5t23.5 235q0 160 -24.5 246 t-84 122.5t-169.5 36.5q-111 0 -171.5 -36.5t-86 -122.5t-25.5 -246z" />
<glyph unicode="p" horiz-adv-x="1079" d="M147 -455v1479h152v-74q80 47 154.5 70.5t158.5 23.5q190 0 277.5 -125.5t87.5 -400.5q0 -195 -45 -312.5t-143.5 -171.5t-264.5 -54q-115 0 -223 22v-457h-154zM301 135q146 -22 219 -22h6q160 0 227.5 94t67.5 305q0 209 -58 302t-177 93q-59 0 -128 -19.5t-118 -41.5 l-39 -21v-690z" />
<glyph unicode="q" horiz-adv-x="1077" d="M102 504q0 199 46.5 316.5t150.5 170.5t287 53l342 -20v-1479h-152v502q-141 -67 -291 -67h-4q-201 0 -290 121.5t-89 402.5zM258 502q0 -209 57.5 -297t196.5 -88q112 0 227 45l37 14v723q-125 12 -192 12q-127 0 -198 -43t-99.5 -131t-28.5 -235z" />
<glyph unicode="r" horiz-adv-x="708" d="M147 0v1024h152v-139q176 121 375 162v-156q-80 -16 -173 -50t-149 -63l-51 -26v-752h-154z" />
<glyph unicode="s" horiz-adv-x="952" d="M92 737q0 166 100.5 235.5t284.5 69.5q145 0 297 -26l57 -10l-4 -132q-221 33 -346 33q-119 0 -177 -36.5t-58 -114.5q0 -55 28.5 -85t74.5 -43.5t130 -27.5l51 -10q127 -23 197 -52.5t103.5 -85t33.5 -153.5q0 -166 -97 -242.5t-298 -76.5h-8q-121 0 -293 28l-62 10 l9 134q240 -35 352 -35q123 0 183.5 40t60.5 128q0 63 -30 96t-76 47t-130 27l-51 8q-123 20 -192.5 49t-104.5 81t-35 144z" />
<glyph unicode="t" horiz-adv-x="718" d="M55 891v133h146v313h151v-313h326v-133h-326v-490q0 -115 8.5 -171t40 -85.5t99.5 -29.5l182 12l10 -127q-145 -23 -219 -23q-104 0 -162.5 34t-84 115t-25.5 226v539h-146z" />
<glyph unicode="u" horiz-adv-x="1087" d="M137 489v535h154v-532q0 -154 16.5 -232t59.5 -110.5t133 -32.5q139 0 286 76v831h154v-1024h-154v72q-84 -49 -155.5 -70.5t-163.5 -21.5q-131 0 -201.5 48t-99.5 156.5t-29 304.5z" />
<glyph unicode="v" horiz-adv-x="985" d="M51 1024h164l240 -891h75l248 891h158l-289 -1024h-307z" />
<glyph unicode="w" horiz-adv-x="1560" d="M63 1024h154l207 -891h33l243 871h160l244 -871h35l204 891h154l-244 -1024h-256l-217 801l-217 -801h-256z" />
<glyph unicode="x" horiz-adv-x="925" d="M45 0l322 512l-322 512h168l250 -401l250 401h168l-326 -508l324 -516h-168l-248 399l-250 -399h-168z" />
<glyph unicode="y" horiz-adv-x="989" d="M51 1024h154l256 -891h67l258 891h154l-426 -1479h-154l134 455h-152z" />
<glyph unicode="z" horiz-adv-x="931" d="M86 0v137l573 750h-573v137h760v-137l-574 -750h574v-137h-760z" />
<glyph unicode="{" horiz-adv-x="720" d="M49 575v125q115 27 167 81.5t52 142.5l-14 262q0 188 87 270t296 90l2 -133q-131 -8 -183.5 -62.5t-52.5 -172.5l15 -252q0 -90 -18.5 -142.5t-64.5 -86t-132 -58.5q123 -37 169 -99.5t46 -191.5l-15 -237q0 -119 52.5 -175.5t183.5 -64.5l-4 -133q-207 8 -294 91 t-87 267l14 250q0 88 -51 142.5t-168 86.5z" />
<glyph unicode="|" horiz-adv-x="471" d="M160 -455v1925h151v-1925h-151z" />
<glyph unicode="}" horiz-adv-x="720" d="M82 -129q131 8 183 64.5t52 175.5l-14 237q0 129 46 191.5t169 99.5q-86 25 -132 58.5t-64.5 86t-18.5 142.5l14 252q0 119 -52 173t-183 62l2 133q209 -8 296 -90t87 -270l-14 -262q0 -88 52 -142.5t167 -81.5v-125q-117 -33 -168 -87t-51 -142l14 -250q0 -184 -87 -267 t-294 -91z" />
<glyph unicode="~" d="M137 557q127 109 238 109q59 0 213 -62q147 -63 190 -63q74 0 180 69l35 25l21 -125q-129 -111 -238 -111q-57 1 -209 64q-154 63 -192 63q-35 0 -88.5 -22.5t-91.5 -48.5l-35 -25z" />
<glyph unicode="&#xa1;" horiz-adv-x="466" d="M147 795v229h168v-229h-168zM150 -393l10 950h141l10 -950h-161z" />
<glyph unicode="&#xa2;" d="M207 504q0 225 88 331.5t274 116.5v242h133v-248l207 -24l-6 -123q-152 14 -264 14q-152 0 -212 -68.5t-60 -236.5q0 -115 25.5 -178.5t87 -91t171.5 -27.5l254 14l6 -125q-131 -20 -209 -22v-244h-133v240q-193 10 -277.5 108.5t-84.5 321.5z" />
<glyph unicode="&#xa3;" d="M164 0v135h174v586h-137v133h137v113q0 160 29.5 246.5t94 122.5t179.5 36q109 0 227 -24l45 -11l-2 -125q-170 23 -258 23q-66 0 -100.5 -24.5t-50 -84t-15.5 -170.5v-102h351v-133h-351v-586h316l158 33l26 -131l-168 -37h-655z" />
<glyph unicode="&#xa4;" d="M119 170l143 143q-59 94 -59 201q0 109 59 205l-143 143l108 109l144 -146q90 61 200 62q111 0 205 -62l144 146l108 -109l-145 -143q61 -94 61 -205t-61 -201l145 -143l-108 -109l-144 146q-94 -61 -205 -62q-111 0 -200 62l-144 -146zM338 516q0 -96 70 -166t165 -69 q97 0 166.5 69.5t69.5 165.5t-69.5 166t-166.5 70q-96 0 -165.5 -70t-69.5 -166z" />
<glyph unicode="&#xa5;" d="M47 1352h176l352 -553l349 553h176l-350 -574h278v-133h-373v-178h375v-133h-375v-334h-157v334h-379v133h379v178h-381v133h286z" />
<glyph unicode="&#xa6;" horiz-adv-x="479" d="M164 319h151v-774h-151v774zM164 705v765h151v-765h-151z" />
<glyph unicode="&#xa7;" horiz-adv-x="1021" d="M106 522q0 72 40 150t79 108q-90 66 -90 228q0 326 393 325q111 0 283 -26l53 -9l-8 -129q-225 31 -338 31q-117 0 -175 -46t-58 -142q0 -66 26.5 -103t88 -59.5t184.5 -44.5q121 -23 189.5 -54.5t101 -88t32.5 -148.5q0 -139 -90 -272q76 -63 76 -205q0 -344 -391 -344 q-131 -1 -297 24l-62 11l15 129q225 -31 336 -31q252 0 251 203q0 90 -59 125q-61 33 -240 65q-125 23 -197.5 57.5t-107.5 93t-35 152.5zM260 535q0 -80 51 -119t191 -64q145 -29 198 -53q15 18 33.5 80.5t18.5 128.5q0 74 -51.5 110.5t-184.5 61.5q-125 20 -188 45 q-68 -113 -68 -190z" />
<glyph unicode="&#xa8;" horiz-adv-x="483" d="M-25 1272v184h148v-184h-148zM385 1272v184h150v-184h-150z" />
<glyph unicode="&#xa9;" horiz-adv-x="1320" d="M121 891q0 156 70.5 282.5t193.5 200.5t277 74t276.5 -75t192 -203t69.5 -283q0 -156 -69.5 -283t-191.5 -200.5t-275 -73.5q-154 0 -278 73.5t-194.5 202.5t-70.5 285zM211 889q0 -129 58.5 -236.5t162 -170t227.5 -62.5q125 0 228.5 62.5t163 170t59.5 236.5 t-59.5 237.5t-162 171t-226.5 62.5q-193 0 -322 -137t-129 -334zM428 889q0 172 55.5 246.5t186.5 74.5q80 0 137 -14l20 -6l-8 -109q-76 12 -147 13q-70 0 -94.5 -44t-24.5 -157q0 -115 26.5 -163t96.5 -48l143 14l8 -106q-76 -25 -159 -25q-131 0 -185.5 76t-54.5 248z " />
<glyph unicode="&#xaa;" horiz-adv-x="790" d="M111 920q0 164 196 176l180 12v45q0 43 -24.5 62.5t-75.5 19.5l-235 -14l-5 98q141 31 252 31q113 0 166 -46.5t53 -156.5v-281q20 -23 62 -35l-4 -100q-76 0 -110 11.5t-60 41.5q-117 -53 -207 -53q-92 0 -140 50t-48 139zM246 922q0 -80 73 -80q64 0 168 35v137 l-157 -10q-45 -4 -64.5 -22.5t-19.5 -59.5z" />
<glyph unicode="&#xab;" horiz-adv-x="1103" d="M92 446v123l387 293v-157l-254 -193l254 -215v-160zM580 446v123l387 293v-157l-254 -193l254 -215v-160z" />
<glyph unicode="&#xac;" d="M133 561v139h877v-460h-144v321h-733z" />
<glyph unicode="&#xad;" horiz-adv-x="897" d="M139 492v143h621v-143h-621z" />
<glyph unicode="&#xae;" horiz-adv-x="1320" d="M121 891q0 156 70.5 282.5t193.5 200.5t277 74t276.5 -74t192 -202t69.5 -283q0 -156 -69.5 -284t-191.5 -201.5t-275 -73.5q-154 0 -278 73.5t-194.5 202.5t-70.5 285zM211 891q0 -129 59.5 -237.5t163 -171t228.5 -62.5q124 0 226.5 62.5t162 170t59.5 236.5 t-59.5 237.5t-162 171t-226.5 62.5q-125 0 -228.5 -62.5t-163 -170t-59.5 -236.5zM436 578v620h226q233 0 233 -180q0 -90 -23.5 -134t-80.5 -71l112 -235h-125l-102 219h-121v-219h-119zM553 893h121q55 0 79.5 24.5t24.5 79.5q0 104 -127 105h-98v-209z" />
<glyph unicode="&#xaf;" horiz-adv-x="483" d="M-29 1278v121h564v-121h-564z" />
<glyph unicode="&#xb0;" d="M283 1149q0 129 80.5 209t209.5 80t210 -80t81 -209t-81 -209t-210 -80t-209.5 80t-80.5 209zM387 1149q0 -86 51 -138.5t135 -52.5t137.5 52.5t53.5 138.5q0 84 -53.5 137t-137.5 53t-135 -53t-51 -137z" />
<glyph unicode="&#xb1;" d="M113 78v139h921v-139h-921zM113 600v139h387v258h143v-258h391v-139h-391v-260h-143v260h-387z" />
<glyph unicode="&#xb2;" horiz-adv-x="573" d="M61 979v113l181 178q104 102 104 170q0 76 -100 76l-174 -19l-4 117q119 25 219 24q195 0 194 -186q0 -66 -27.5 -116t-97.5 -113l-129 -125h262v-119h-428z" />
<glyph unicode="&#xb3;" horiz-adv-x="573" d="M61 979l9 115q125 -16 213 -17q94 0 94 88q0 86 -96 86h-134v109h134q31 0 54 26.5t23 63.5q0 70 -92 70l-188 -15l-8 113q115 20 209 20q215 0 215 -172q0 -102 -80 -149q51 -18 73.5 -53t22.5 -107q0 -199 -217 -199z" />
<glyph unicode="&#xb4;" horiz-adv-x="548" d="M53 1315l443 201l53 -132l-453 -174z" />
<glyph unicode="&#xb5;" d="M172 -455v1479h154v-532q0 -156 16 -234t61.5 -109.5t137.5 -31.5q61 0 130.5 18.5t112.5 38.5l37 19v831h154v-1024h-154v72q-154 -92 -286 -92q-133 0 -209 34v-469h-154z" />
<glyph unicode="&#xb6;" horiz-adv-x="1214" d="M72 1038q0 109 49 196t137 135t197 48h673v-133h-147v-1284h-139v1284h-238v-1284h-137v664h-14q-109 0 -196 47t-136 133t-49 194z" />
<glyph unicode="&#xb7;" horiz-adv-x="444" d="M137 469v233h168v-233h-168z" />
<glyph unicode="&#xb8;" horiz-adv-x="538" d="M86 -430l6 98q80 -6 135 -6q90 0 90 78q0 70 -90 70h-86v192h84v-102q125 0 176.5 -34t51.5 -126q0 -184 -191 -184q-85 0 -151 10z" />
<glyph unicode="&#xb9;" horiz-adv-x="573" d="M66 1475l206 143h123v-639h-131v496l-139 -97z" />
<glyph unicode="&#xba;" horiz-adv-x="778" d="M109 1044q0 158 69.5 232t212.5 74q141 0 209 -74t68 -232q0 -313 -277 -313q-282 0 -282 313zM250 1044q0 -100 32.5 -144t108.5 -44t105.5 43t29.5 145q0 100 -29.5 140.5t-105.5 40.5q-78 0 -109.5 -41t-31.5 -140z" />
<glyph unicode="&#xbb;" horiz-adv-x="1103" d="M137 137v160l254 215l-254 193v157l387 -293v-123zM625 137v160l254 215l-254 193v157l387 -293v-123z" />
<glyph unicode="&#xbc;" d="M-459 57l723 1166v252l-139 -97l-59 97l206 143h123v-299l31 -21l-31 -49v-270h-131v59l-643 -1032zM623 4l141 430h143l-149 -422h153l11 183h118v-183h56v-118h-56v-99h-129v99h-288v110z" />
<glyph unicode="&#xbd;" d="M-459 57l723 1166v252l-139 -97l-59 97l206 143h123v-299l31 -21l-31 -49v-270h-131v59l-643 -1032zM635 -92l180 178q104 102 105 170q0 76 -101 76l-174 -19l-4 117q121 25 219 25q195 0 195 -187q0 -66 -28 -116t-97 -113l-129 -125h262v-119h-428v113z" />
<glyph unicode="&#xbe;" d="M-459 57l803 1295l82 -54l-805 -1292zM0 0zM49 4l141 430h144l-150 -422h154l10 183h119v-183h55v-118h-55v-99h-129v99h-289v110zM634 979l9 115q125 -16 213 -17q94 0 94 88q0 86 -96 86h-134v109h134q31 0 54 26.5t23 63.5q0 70 -92 70l-188 -15l-8 113q115 20 209 20 q215 0 215 -172q0 -102 -80 -149q51 -18 73.5 -53t22.5 -107q0 -199 -217 -199z" />
<glyph unicode="&#xbf;" horiz-adv-x="903" d="M78 -84q0 92 14 147.5t52 102.5t114 110q113 94 153 147.5t40 119.5v71h129q26 -53 26 -125q0 -66 -44 -125t-154 -155q-76 -66 -111 -106t-49.5 -81.5t-14.5 -105.5q0 -96 66 -142t207 -46q88 0 317 47l11 -125q-205 -61 -342 -62q-213 0 -313.5 78t-100.5 250zM434 795 v229h168v-229h-168z" />
<glyph unicode="&#xc0;" horiz-adv-x="1220" d="M49 0l389 1417h344l389 -1417h-155l-103 365h-606l-102 -365h-156zM49 0zM333 1772l54 135l442 -205l-47 -109zM342 506h537l-215 776h-107z" />
<glyph unicode="&#xc1;" horiz-adv-x="1220" d="M49 0l389 1417h344l389 -1417h-155l-103 365h-606l-102 -365h-156zM49 0zM342 506h537l-215 776h-107zM381 1702l442 205l53 -135l-448 -179z" />
<glyph unicode="&#xc2;" horiz-adv-x="1220" d="M49 0l389 1417h344l389 -1417h-155l-103 365h-606l-102 -365h-156zM49 0zM267 1620l274 276h133l275 -276h-172l-168 164l-170 -164h-172zM342 506h537l-215 776h-107z" />
<glyph unicode="&#xc3;" horiz-adv-x="1220" d="M49 0l389 1417h344l389 -1417h-155l-103 365h-606l-102 -365h-156zM49 0zM256 1772q43 49 95 83.5t97 34.5t172 -55q125 -55 146 -55q41 0 118 71l25 23l37 -115q-96 -115 -180 -114q-45 0 -170 55q-127 55 -154 55q-45 0 -125 -74l-27 -24zM342 506h537l-215 776h-107z " />
<glyph unicode="&#xc4;" horiz-adv-x="1220" d="M49 0l389 1417h344l389 -1417h-155l-103 365h-606l-102 -365h-156zM49 0zM326 1655v184h149v-184h-149zM342 506h537l-215 776h-107zM744 1655v184h147v-184h-147z" />
<glyph unicode="&#xc5;" horiz-adv-x="1220" d="M49 0l377 1370q-61 57 -61 154q0 100 67.5 157.5t175.5 57.5q109 0 175.5 -57.5t66.5 -157.5q0 -90 -55 -150l376 -1374h-155l-103 365h-606l-102 -365h-156zM342 506h537l-215 776h-107zM481 1524q0 -41 22.5 -70t63.5 -37h82q41 8 63.5 37t22.5 70q0 51 -33.5 79.5 t-93.5 28.5q-127 1 -127 -108z" />
<glyph unicode="&#xc6;" horiz-adv-x="1794" d="M41 0l459 1425h1198v-149h-707v-471h584v-150h-584v-505h707v-150h-862v358h-514l-119 -358h-162zM365 510h471l2 766h-224z" />
<glyph unicode="&#xc7;" horiz-adv-x="1114" d="M121 709q0 254 43 410.5t156.5 237.5t326.5 81q166 0 383 -45l-6 -133q-207 37 -356 36q-160 0 -242 -57t-111.5 -184t-29.5 -369q0 -209 27.5 -326.5t113.5 -178t260 -60.5q141 0 338 37l6 -135q-211 -43 -371 -43v-80q125 0 176.5 -34t51.5 -126q0 -184 -191 -184 q-86 0 -151 10l-25 4l6 98q80 -6 136 -6q90 0 90 78q0 70 -90 70h-87v174q-182 14 -281 100t-136 236.5t-37 388.5z" />
<glyph unicode="&#xc8;" horiz-adv-x="1132" d="M174 0v1417h862v-139h-704v-490h581v-137h-581v-512h704v-139h-862zM174 0zM346 1772l54 135l442 -205l-47 -109z" />
<glyph unicode="&#xc9;" horiz-adv-x="1132" d="M174 0v1417h862v-139h-704v-490h581v-137h-581v-512h704v-139h-862zM174 0zM361 1702l442 205l53 -135l-448 -179z" />
<glyph unicode="&#xca;" horiz-adv-x="1132" d="M174 0v1417h862v-139h-704v-490h581v-137h-581v-512h704v-139h-862zM174 0zM261 1620l274 276h133l275 -276h-172l-168 164l-170 -164h-172z" />
<glyph unicode="&#xcb;" horiz-adv-x="1132" d="M174 0v1417h862v-139h-704v-490h581v-137h-581v-512h704v-139h-862zM174 0zM322 1655v184h149v-184h-149zM740 1655v184h147v-184h-147z" />
<glyph unicode="&#xcc;" horiz-adv-x="503" d="M-41 1772l54 135l442 -205l-47 -109zM0 0zM174 0v1417h158v-1417h-158z" />
<glyph unicode="&#xcd;" horiz-adv-x="503" d="M25 0zM25 1702l442 205l53 -135l-448 -179zM174 0v1417h158v-1417h-158z" />
<glyph unicode="&#xce;" horiz-adv-x="503" d="M-96 1620l274 276h133l275 -276h-172l-168 164l-170 -164h-172zM0 0zM174 0v1417h158v-1417h-158z" />
<glyph unicode="&#xcf;" horiz-adv-x="503" d="M-31 1655v184h149v-184h-149zM0 0zM174 0v1417h158v-1417h-158zM387 1655v184h147v-184h-147z" />
<glyph unicode="&#xd0;" horiz-adv-x="1325" d="M41 637v149h139v639h506q279 0 401.5 -173t122.5 -517q0 -377 -131 -556t-393 -179h-506v637h-139zM336 150h350q360 0 361 585q0 281 -89.5 411t-271.5 130h-350v-490h323v-149h-323v-487z" />
<glyph unicode="&#xd1;" horiz-adv-x="1384" d="M174 0v1417h295l545 -1278h41v1278h155v-1417h-288l-551 1278h-39v-1278h-158zM174 0zM342 1772q43 49 95 83.5t97 34.5t172 -55q125 -55 146 -55q41 0 118 71l25 23l37 -115q-96 -115 -180 -114q-45 0 -170 55q-127 55 -154 55q-45 0 -125 -74l-27 -24z" />
<glyph unicode="&#xd2;" horiz-adv-x="1351" d="M117 0zM117 702q0 256 53 417t176 240t330 79t329.5 -79t177 -240t54.5 -421t-52 -415.5t-174 -229t-333 -73.5t-334 75.5t-175 232t-52 414.5zM279 702q0 -215 34.5 -340.5t121.5 -184t243 -58.5t241 57t119.5 181t34.5 341t-36 346.5t-122 191.5t-239 62 q-154 0 -240 -61t-121.5 -190t-35.5 -345zM411 1772l54 135l442 -205l-47 -109z" />
<glyph unicode="&#xd3;" horiz-adv-x="1351" d="M117 0zM117 702q0 256 53 417t176 240t330 79t329.5 -79t177 -240t54.5 -421t-52 -415.5t-174 -229t-333 -73.5t-334 75.5t-175 232t-52 414.5zM279 702q0 -215 34.5 -340.5t121.5 -184t243 -58.5t241 57t119.5 181t34.5 341t-36 346.5t-122 191.5t-239 62 q-154 0 -240 -61t-121.5 -190t-35.5 -345zM406 1702l442 205l53 -135l-448 -179z" />
<glyph unicode="&#xd4;" horiz-adv-x="1351" d="M117 0zM117 702q0 256 53 417t176 240t330 79t329.5 -79t177 -240t54.5 -421t-52 -415.5t-174 -229t-333 -73.5t-334 75.5t-175 232t-52 414.5zM279 702q0 -215 34.5 -340.5t121.5 -184t243 -58.5t241 57t119.5 181t34.5 341t-36 346.5t-122 191.5t-239 62 q-154 0 -240 -61t-121.5 -190t-35.5 -345zM336 1620l274 276h133l275 -276h-172l-168 164l-170 -164h-172z" />
<glyph unicode="&#xd5;" horiz-adv-x="1351" d="M117 0zM117 702q0 256 53 417t176 240t330 79t329.5 -79t177 -240t54.5 -421t-52 -415.5t-174 -229t-333 -73.5t-334 75.5t-175 232t-52 414.5zM279 702q0 -215 34.5 -340.5t121.5 -184t243 -58.5t241 57t119.5 181t34.5 341t-36 346.5t-122 191.5t-239 62 q-154 0 -240 -61t-121.5 -190t-35.5 -345zM326 1772q43 49 95 83.5t97 34.5t172 -55q125 -55 146 -55q41 0 118 71l25 23l37 -115q-96 -115 -180 -114q-45 0 -170 55q-127 55 -154 55q-45 0 -125 -74l-27 -24z" />
<glyph unicode="&#xd6;" horiz-adv-x="1351" d="M117 0zM117 702q0 256 53 417t176 240t330 79t329.5 -79t177 -240t54.5 -421t-52 -415.5t-174 -229t-333 -73.5t-334 75.5t-175 232t-52 414.5zM279 702q0 -215 34.5 -340.5t121.5 -184t243 -58.5t241 57t119.5 181t34.5 341t-36 346.5t-122 191.5t-239 62 q-154 0 -240 -61t-121.5 -190t-35.5 -345zM393 1655v184h149v-184h-149zM811 1655v184h147v-184h-147z" />
<glyph unicode="&#xd7;" d="M80 199l321 321l-321 322l98 98l322 -322l321 322l99 -98l-322 -322l322 -321l-99 -99l-321 322l-322 -322z" />
<glyph unicode="&#xd8;" horiz-adv-x="1351" d="M117 702q0 256 53 417t176 240t330 79q154 0 258 -43l115 241l118 -49l-120 -260q190 -160 190 -625q0 -262 -52 -418.5t-174 -230t-335 -73.5q-137 0 -246 34l-117 -252l-116 54l120 258q-106 80 -153 231.5t-47 396.5zM279 678q0 -338 106 -457l487 1039 q-76 39 -196 38q-156 0 -241 -61t-120.5 -194.5t-35.5 -364.5zM494 147q74 -29 182 -28q158 0 243 57t119.5 184t34.5 355q0 330 -98 461z" />
<glyph unicode="&#xd9;" horiz-adv-x="1318" d="M164 0zM164 430v987h158v-991q0 -307 331 -307q174 0 260 73.5t86 233.5v991h156v-987q0 -233 -124 -341.5t-374 -108.5q-249 0 -371 107.5t-122 342.5zM401 1772l54 135l442 -205l-47 -109z" />
<glyph unicode="&#xda;" horiz-adv-x="1318" d="M164 0zM164 430v987h158v-991q0 -307 331 -307q174 0 260 73.5t86 233.5v991h156v-987q0 -233 -124 -341.5t-374 -108.5q-249 0 -371 107.5t-122 342.5zM408 1702l442 205l53 -135l-448 -179z" />
<glyph unicode="&#xdb;" horiz-adv-x="1318" d="M164 0zM164 430v987h158v-991q0 -307 331 -307q174 0 260 73.5t86 233.5v991h156v-987q0 -233 -124 -341.5t-374 -108.5q-249 0 -371 107.5t-122 342.5zM318 1620l274 276h133l275 -276h-172l-168 164l-170 -164h-172z" />
<glyph unicode="&#xdc;" horiz-adv-x="1318" d="M164 0zM164 430v987h158v-991q0 -307 331 -307q174 0 260 73.5t86 233.5v991h156v-987q0 -233 -124 -341.5t-374 -108.5q-249 0 -371 107.5t-122 342.5zM377 1655v184h149v-184h-149zM795 1655v184h147v-184h-147z" />
<glyph unicode="&#xdd;" horiz-adv-x="1101" d="M20 0zM20 1417h179l352 -663l352 663h178l-450 -821v-596h-158v596zM342 1702l442 205l53 -135l-448 -179z" />
<glyph unicode="&#xde;" horiz-adv-x="1226" d="M174 0v1425h158v-229h360q231 0 343 -112.5t112 -346.5q0 -238 -114.5 -363.5t-340.5 -125.5h-360v-248h-158zM332 399h358q295 0 295 340q0 160 -70.5 232.5t-224.5 72.5h-358v-645z" />
<glyph unicode="&#xdf;" horiz-adv-x="1175" d="M147 0v1116q0 205 92.5 290t307.5 85q213 0 306 -69.5t93 -225.5q0 -106 -38 -164.5t-122 -95.5q-74 -33 -101.5 -52.5t-27.5 -52.5q0 -20 5.5 -30t26 -23.5t56.5 -34.5q14 -8 42 -22t71 -41q139 -70 192.5 -135.5t53.5 -182.5q0 -141 -40 -224t-130 -120.5t-242 -37.5 q-96 -1 -225 22l-43 8l6 129q184 -23 250 -22q141 0 202.5 52t61.5 157q0 68 -17.5 106.5t-62.5 69t-139 76.5q-133 63 -180 112t-47 127q0 74 35.5 116t119.5 79q80 35 106.5 72.5t26.5 117.5t-53 116t-186 36q-94 0 -146.5 -22.5t-76 -78t-23.5 -155.5v-1098h-154z" />
<glyph unicode="&#xe0;" horiz-adv-x="1026" d="M82 0zM82 289q0 147 74.5 219t238.5 88l322 31v88q0 195 -168 194q-166 0 -404 -26l-6 116q219 45 400 45q174 0 252.5 -78.5t78.5 -250.5v-525q6 -76 119 -90l-6 -120q-162 0 -244 81q-182 -82 -368 -81q-142 0 -215.5 79.5t-73.5 229.5zM240 297q0 -188 155 -188 q138 0 275 47l47 16v338l-303 -29q-92 -8 -133 -53t-41 -131zM248 1384l53 132l443 -201l-43 -105z" />
<glyph unicode="&#xe1;" horiz-adv-x="1026" d="M82 0zM82 289q0 147 74.5 219t238.5 88l322 31v88q0 195 -168 194q-166 0 -404 -26l-6 116q219 45 400 45q174 0 252.5 -78.5t78.5 -250.5v-525q6 -76 119 -90l-6 -120q-162 0 -244 81q-182 -82 -368 -81q-142 0 -215.5 79.5t-73.5 229.5zM240 297q0 -188 155 -188 q138 0 275 47l47 16v338l-303 -29q-92 -8 -133 -53t-41 -131zM241 1315l443 201l53 -132l-453 -174z" />
<glyph unicode="&#xe2;" horiz-adv-x="1026" d="M82 0zM82 289q0 147 74.5 219t238.5 88l322 31v88q0 195 -168 194q-166 0 -404 -26l-6 116q219 45 400 45q174 0 252.5 -78.5t78.5 -250.5v-525q6 -76 119 -90l-6 -120q-162 0 -244 81q-182 -82 -368 -81q-142 0 -215.5 79.5t-73.5 229.5zM194 1212l252 287h104l254 -287 h-153l-150 179l-153 -179h-154zM240 297q0 -188 155 -188q138 0 275 47l47 16v338l-303 -29q-92 -8 -133 -53t-41 -131z" />
<glyph unicode="&#xe3;" horiz-adv-x="1026" d="M82 0zM82 289q0 147 74.5 219t238.5 88l322 31v88q0 195 -168 194q-166 0 -404 -26l-6 116q219 45 400 45q174 0 252.5 -78.5t78.5 -250.5v-525q6 -76 119 -90l-6 -120q-162 0 -244 81q-182 -82 -368 -81q-142 0 -215.5 79.5t-73.5 229.5zM158 1366q100 106 186 107 q39 0 149 -48q111 -47 132 -47q41 0 118 60l27 18l35 -98q-96 -104 -176 -105q-44 1 -148 50q-111 47 -133 47q-47 0 -127 -62l-27 -20zM240 297q0 -188 155 -188q138 0 275 47l47 16v338l-303 -29q-92 -8 -133 -53t-41 -131z" />
<glyph unicode="&#xe4;" horiz-adv-x="1026" d="M82 0zM82 289q0 147 74.5 219t238.5 88l322 31v88q0 195 -168 194q-166 0 -404 -26l-6 116q219 45 400 45q174 0 252.5 -78.5t78.5 -250.5v-525q6 -76 119 -90l-6 -120q-162 0 -244 81q-182 -82 -368 -81q-142 0 -215.5 79.5t-73.5 229.5zM215 1272v184h148v-184h-148z M240 297q0 -188 155 -188q138 0 275 47l47 16v338l-303 -29q-92 -8 -133 -53t-41 -131zM625 1272v184h150v-184h-150z" />
<glyph unicode="&#xe5;" horiz-adv-x="1026" d="M82 0zM82 289q0 147 74.5 219t238.5 88l322 31v88q0 195 -168 194q-166 0 -404 -26l-6 116q219 45 400 45q174 0 252.5 -78.5t78.5 -250.5v-525q6 -76 119 -90l-6 -120q-162 0 -244 81q-182 -82 -368 -81q-142 0 -215.5 79.5t-73.5 229.5zM240 297q0 -188 155 -188 q138 0 275 47l47 16v338l-303 -29q-92 -8 -133 -53t-41 -131zM315 1323q0 88 59.5 149.5t147.5 61.5t147.5 -61.5t59.5 -149.5q0 -90 -59.5 -152.5t-147.5 -62.5t-147.5 62.5t-59.5 152.5zM409 1323q0 -49 33 -83t80 -34t79.5 34t32.5 83q0 47 -32.5 81t-79.5 34t-80 -34 t-33 -81z" />
<glyph unicode="&#xe6;" horiz-adv-x="1646" d="M82 299q0 106 36 166.5t115.5 91.5t219.5 45l264 25v84q0 186 -178 186q-123 0 -326 -16l-63 -4l-7 137q244 31 404 30q209 0 276 -149q98 150 314 149q215 0 316 -116.5t101 -362.5l-8 -119h-676q0 -166 61.5 -246.5t188.5 -80.5q139 0 334 14l59 4l5 -125 q-223 -33 -416 -32q-184 0 -283 110l-65 -29q-176 -82 -394 -81q-137 0 -207.5 80.5t-70.5 238.5zM240 297q0 -184 145 -184q84 0 185.5 26.5t142.5 48.5v314l-299 -25q-90 -8 -132 -51t-42 -129zM870 571h531q0 182 -59.5 259t-196.5 77q-139 0 -207 -81t-68 -255z" />
<glyph unicode="&#xe7;" horiz-adv-x="892" d="M104 512q0 244 82 389.5t318 145.5q61 0 126.5 -6.5t178.5 -26.5l-6 -125q-162 18 -248 18q-117 0 -179.5 -35.5t-88 -120.5t-25.5 -243q0 -150 24.5 -232.5t89 -120.5t187.5 -38l242 18l6 -127q-197 -29 -295 -28h-6v-80q125 0 176 -34t51 -126q0 -184 -190 -184 q-86 0 -152 10l-24 4l6 98q80 -6 135 -6q90 0 90 78q0 70 -90 70h-86v176q-176 20 -249 144t-73 382z" />
<glyph unicode="&#xe8;" horiz-adv-x="1034" d="M102 0zM102 485q0 285 104.5 422t328.5 137q205 0 306 -117.5t101 -361.5l-8 -116h-676q0 -127 27.5 -199t94 -103.5t185.5 -31.5q59 0 137 3t142 9l59 6l4 -121q-227 -33 -377 -32q-233 0 -330.5 121.5t-97.5 383.5zM248 1384l53 132l443 -201l-43 -105zM256 571h532 q0 186 -59 265t-194 79q-141 0 -209 -82.5t-70 -261.5z" />
<glyph unicode="&#xe9;" horiz-adv-x="1034" d="M102 0zM102 485q0 285 104.5 422t328.5 137q205 0 306 -117.5t101 -361.5l-8 -116h-676q0 -127 27.5 -199t94 -103.5t185.5 -31.5q59 0 137 3t142 9l59 6l4 -121q-227 -33 -377 -32q-233 0 -330.5 121.5t-97.5 383.5zM256 571h532q0 186 -59 265t-194 79 q-141 0 -209 -82.5t-70 -261.5zM297 1315l443 201l53 -132l-453 -174z" />
<glyph unicode="&#xea;" horiz-adv-x="1034" d="M102 0zM102 485q0 285 104.5 422t328.5 137q205 0 306 -117.5t101 -361.5l-8 -116h-676q0 -127 27.5 -199t94 -103.5t185.5 -31.5q59 0 137 3t142 9l59 6l4 -121q-227 -33 -377 -32q-233 0 -330.5 121.5t-97.5 383.5zM229 1212l252 287h104l254 -287h-153l-150 179 l-153 -179h-154zM256 571h532q0 186 -59 265t-194 79q-141 0 -209 -82.5t-70 -261.5z" />
<glyph unicode="&#xeb;" horiz-adv-x="1034" d="M102 0zM102 485q0 285 104.5 422t328.5 137q205 0 306 -117.5t101 -361.5l-8 -116h-676q0 -127 27.5 -199t94 -103.5t185.5 -31.5q59 0 137 3t142 9l59 6l4 -121q-227 -33 -377 -32q-233 0 -330.5 121.5t-97.5 383.5zM245 1272v184h148v-184h-148zM256 571h532 q0 186 -59 265t-194 79q-141 0 -209 -82.5t-70 -261.5zM655 1272v184h150v-184h-150z" />
<glyph unicode="&#xec;" horiz-adv-x="446" d="M-123 1384l53 132l443 -201l-43 -105zM0 0zM147 0v1024h152v-1024h-152z" />
<glyph unicode="&#xed;" horiz-adv-x="446" d="M78 0zM78 1315l443 201l53 -132l-453 -174zM147 0v1024h152v-1024h-152z" />
<glyph unicode="&#xee;" horiz-adv-x="446" d="M-86 1212l252 287h104l254 -287h-153l-150 179l-153 -179h-154zM0 0zM147 0v1024h152v-1024h-152z" />
<glyph unicode="&#xef;" horiz-adv-x="446" d="M-64 1272v184h148v-184h-148zM0 0zM147 0v1024h152v-1024h-152zM346 1272v184h150v-184h-150z" />
<glyph unicode="&#xf0;" horiz-adv-x="1122" d="M86 430q0 213 112.5 332t317.5 119q133 0 287 -56l51 -18q-16 268 -281 424l-249 -166l-68 96l195 131q-119 49 -254 84l30 115q203 -39 355 -111l206 140l70 -97l-158 -106q315 -199 316 -596q0 -266 -48 -428t-151.5 -236.5t-273.5 -74.5q-219 0 -338 117.5t-119 330.5 zM248 430q0 -147 76.5 -228t230.5 -81q107 0 172.5 52t97 172t31.5 325q-184 74 -324 73q-137 0 -210.5 -84t-73.5 -229z" />
<glyph unicode="&#xf1;" horiz-adv-x="1099" d="M147 0v1024h152v-72q92 51 169 71.5t161 20.5q131 0 202.5 -49t101.5 -156.5t30 -297.5v-541h-152v537q0 145 -17.5 223t-62.5 112.5t-131 34.5q-70 0 -142.5 -17.5t-117.5 -39.5l-39 -19v-831h-154zM147 0zM244 1366q100 106 186 107q39 0 149 -48q111 -47 132 -47 q41 0 118 60l27 18l35 -98q-96 -104 -176 -105q-44 1 -148 50q-111 47 -133 47q-47 0 -127 -62l-27 -20z" />
<glyph unicode="&#xf2;" horiz-adv-x="1081" d="M102 0zM102 506q0 195 43 312.5t139.5 171.5t256.5 54q162 0 257 -55t138 -172t43 -311q0 -188 -41 -303t-136 -169t-261 -54q-164 0 -260.5 54t-137.5 168.5t-41 303.5zM260 506q0 -150 23.5 -234t84 -121.5t175.5 -37.5q112 0 171.5 37.5t83 120.5t23.5 235 q0 160 -24.5 246t-84 122.5t-169.5 36.5q-111 0 -171.5 -36.5t-86 -122.5t-25.5 -246zM289 1384l53 132l443 -201l-43 -105z" />
<glyph unicode="&#xf3;" horiz-adv-x="1081" d="M102 0zM102 506q0 195 43 312.5t139.5 171.5t256.5 54q162 0 257 -55t138 -172t43 -311q0 -188 -41 -303t-136 -169t-261 -54q-164 0 -260.5 54t-137.5 168.5t-41 303.5zM260 506q0 -150 23.5 -234t84 -121.5t175.5 -37.5q112 0 171.5 37.5t83 120.5t23.5 235 q0 160 -24.5 246t-84 122.5t-169.5 36.5q-111 0 -171.5 -36.5t-86 -122.5t-25.5 -246zM315 1315l443 201l53 -132l-453 -174z" />
<glyph unicode="&#xf4;" horiz-adv-x="1081" d="M102 0zM102 506q0 195 43 312.5t139.5 171.5t256.5 54q162 0 257 -55t138 -172t43 -311q0 -188 -41 -303t-136 -169t-261 -54q-164 0 -260.5 54t-137.5 168.5t-41 303.5zM231 1212l252 287h104l254 -287h-153l-150 179l-153 -179h-154zM260 506q0 -150 23.5 -234 t84 -121.5t175.5 -37.5q112 0 171.5 37.5t83 120.5t23.5 235q0 160 -24.5 246t-84 122.5t-169.5 36.5q-111 0 -171.5 -36.5t-86 -122.5t-25.5 -246z" />
<glyph unicode="&#xf5;" horiz-adv-x="1081" d="M102 0zM102 506q0 195 43 312.5t139.5 171.5t256.5 54q162 0 257 -55t138 -172t43 -311q0 -188 -41 -303t-136 -169t-261 -54q-164 0 -260.5 54t-137.5 168.5t-41 303.5zM215 1366q100 106 186 107q39 0 149 -48q111 -47 132 -47q41 0 118 60l27 18l35 -98 q-96 -104 -176 -105q-44 1 -148 50q-111 47 -133 47q-47 0 -127 -62l-27 -20zM260 506q0 -150 23.5 -234t84 -121.5t175.5 -37.5q112 0 171.5 37.5t83 120.5t23.5 235q0 160 -24.5 246t-84 122.5t-169.5 36.5q-111 0 -171.5 -36.5t-86 -122.5t-25.5 -246z" />
<glyph unicode="&#xf6;" horiz-adv-x="1081" d="M102 0zM102 506q0 195 43 312.5t139.5 171.5t256.5 54q162 0 257 -55t138 -172t43 -311q0 -188 -41 -303t-136 -169t-261 -54q-164 0 -260.5 54t-137.5 168.5t-41 303.5zM256 1272v184h148v-184h-148zM260 506q0 -150 23.5 -234t84 -121.5t175.5 -37.5q112 0 171.5 37.5 t83 120.5t23.5 235q0 160 -24.5 246t-84 122.5t-169.5 36.5q-111 0 -171.5 -36.5t-86 -122.5t-25.5 -246zM666 1272v184h150v-184h-150z" />
<glyph unicode="&#xf7;" d="M246 575v150h653v-150h-653zM496 61v207h153v-207h-153zM496 1032v207h153v-207h-153z" />
<glyph unicode="&#xf8;" horiz-adv-x="1081" d="M102 524q0 274 101.5 397t337.5 123q76 0 151 -16l88 213l103 -39l-88 -213q184 -100 184 -465q0 -199 -41 -316.5t-136 -172.5t-261 -55q-80 0 -156 16l-88 -225l-102 36l90 224q-98 55 -140.5 171.5t-42.5 321.5zM260 559q0 -164 15.5 -257t70.5 -138l297 735l-102 12 q-156 0 -218.5 -81.5t-62.5 -270.5zM436 123q41 -10 105 -10q116 0 175.5 37.5t82 126t22.5 258.5q0 242 -86 319z" />
<glyph unicode="&#xf9;" horiz-adv-x="1087" d="M137 0zM137 489v535h154v-532q0 -154 16.5 -232t59.5 -110.5t133 -32.5q139 0 286 76v831h154v-1024h-154v72q-84 -49 -155.5 -70.5t-163.5 -21.5q-131 0 -201.5 48t-99.5 156.5t-29 304.5zM234 1384l53 132l443 -201l-43 -105z" />
<glyph unicode="&#xfa;" horiz-adv-x="1087" d="M137 0zM137 489v535h154v-532q0 -154 16.5 -232t59.5 -110.5t133 -32.5q139 0 286 76v831h154v-1024h-154v72q-84 -49 -155.5 -70.5t-163.5 -21.5q-131 0 -201.5 48t-99.5 156.5t-29 304.5zM317 1315l443 201l53 -132l-453 -174z" />
<glyph unicode="&#xfb;" horiz-adv-x="1087" d="M137 0zM137 489v535h154v-532q0 -154 16.5 -232t59.5 -110.5t133 -32.5q139 0 286 76v831h154v-1024h-154v72q-84 -49 -155.5 -70.5t-163.5 -21.5q-131 0 -201.5 48t-99.5 156.5t-29 304.5zM215 1212l252 287h104l254 -287h-153l-150 179l-153 -179h-154z" />
<glyph unicode="&#xfc;" horiz-adv-x="1087" d="M137 0zM137 489v535h154v-532q0 -154 16.5 -232t59.5 -110.5t133 -32.5q139 0 286 76v831h154v-1024h-154v72q-84 -49 -155.5 -70.5t-163.5 -21.5q-131 0 -201.5 48t-99.5 156.5t-29 304.5zM270 1272v184h148v-184h-148zM680 1272v184h150v-184h-150z" />
<glyph unicode="&#xfd;" horiz-adv-x="989" d="M51 0zM51 1024h154l256 -891h67l258 891h154l-426 -1479h-154l134 455h-152zM315 1315l443 201l53 -132l-453 -174z" />
<glyph unicode="&#xfe;" horiz-adv-x="1079" d="M147 -455v1925h154v-497q156 72 299 71q139 0 221 -51t118 -164.5t36 -312.5q0 -201 -44 -316.5t-144.5 -167.5t-278.5 -52l-207 14v-449h-154zM301 125q133 -12 199 -12q127 0 195.5 40t95 126t26.5 237q0 145 -21.5 230t-71.5 123t-138 38q-123 0 -246 -45l-39 -14 v-723z" />
<glyph unicode="&#xff;" horiz-adv-x="989" d="M51 0zM51 1024h154l256 -891h67l258 891h154l-426 -1479h-154l134 455h-152zM213 1272v184h148v-184h-148zM623 1272v184h150v-184h-150z" />
<glyph unicode="&#x152;" horiz-adv-x="1894" d="M117 711q0 262 51 421.5t170 236.5t321 77q168 0 289 -21h850v-151h-694v-469h571v-152h-571v-501h694v-154h-846q-188 -18 -293 -18q-208 0 -326 75.5t-167 233t-49 422.5zM281 711q0 -219 33.5 -342t119.5 -179.5t246 -56.5q116 0 268 14v1127q-215 18 -272 18 q-156 0 -241 -57t-119.5 -182t-34.5 -342z" />
<glyph unicode="&#x153;" horiz-adv-x="1755" d="M102 516q0 190 44 305t140.5 169t256.5 54q141 0 227 -50t133 -165q92 215 348 215q209 0 310.5 -116.5t101.5 -362.5l-8 -119h-676q0 -168 61.5 -247.5t188.5 -79.5q141 0 334 14l59 4l4 -125q-223 -33 -397 -32q-244 0 -332 186q-45 -98 -129 -142t-225 -44 q-168 0 -263.5 55t-136.5 171t-41 310zM260 520q0 -154 23.5 -239.5t84 -124.5t175.5 -39q112 0 172.5 40t83 124t22.5 233q0 213 -64.5 302t-219.5 89q-106 0 -166 -35.5t-85.5 -118.5t-25.5 -231zM977 571h532q0 182 -60 259t-198 77q-274 0 -274 -336z" />
<glyph unicode="&#x178;" horiz-adv-x="1101" d="M20 0zM20 1417h179l352 -663l352 663h178l-450 -821v-596h-158v596zM266 1655v184h149v-184h-149zM684 1655v184h147v-184h-147z" />
<glyph unicode="&#x2c6;" horiz-adv-x="483" d="M-39 1212l252 287h104l254 -287h-153l-150 179l-153 -179h-154z" />
<glyph unicode="&#x2dc;" horiz-adv-x="483" d="M-61 1366q100 106 186 107q39 0 149 -48q111 -47 132 -47q41 0 118 60l27 18l35 -98q-96 -104 -176 -105q-44 1 -148 50q-111 47 -133 47q-47 0 -127 -62l-27 -20z" />
<glyph unicode="&#x2000;" horiz-adv-x="953" />
<glyph unicode="&#x2001;" horiz-adv-x="1907" />
<glyph unicode="&#x2002;" horiz-adv-x="953" />
<glyph unicode="&#x2003;" horiz-adv-x="1907" />
<glyph unicode="&#x2004;" horiz-adv-x="635" />
<glyph unicode="&#x2005;" horiz-adv-x="476" />
<glyph unicode="&#x2006;" horiz-adv-x="317" />
<glyph unicode="&#x2007;" horiz-adv-x="317" />
<glyph unicode="&#x2008;" horiz-adv-x="238" />
<glyph unicode="&#x2009;" horiz-adv-x="381" />
<glyph unicode="&#x200a;" horiz-adv-x="105" />
<glyph unicode="&#x2010;" horiz-adv-x="897" d="M139 492v143h621v-143h-621z" />
<glyph unicode="&#x2011;" horiz-adv-x="897" d="M139 492v143h621v-143h-621z" />
<glyph unicode="&#x2012;" horiz-adv-x="897" d="M139 492v143h621v-143h-621z" />
<glyph unicode="&#x2013;" horiz-adv-x="1292" d="M135 481v135h1024v-135h-1024z" />
<glyph unicode="&#x2014;" horiz-adv-x="2316" d="M135 481v135h2048v-135h-2048z" />
<glyph unicode="&#x2018;" horiz-adv-x="448" d="M104 1001l132 449h120l-90 -449h-162z" />
<glyph unicode="&#x2019;" horiz-adv-x="442" d="M109 1001l90 449h161l-131 -449h-120z" />
<glyph unicode="&#x201a;" horiz-adv-x="446" d="M139 -43l27 88h24l-18 -88h-33z" />
<glyph unicode="&#x201c;" horiz-adv-x="763" d="M104 1001l132 449h120l-90 -449h-162zM418 1001l131 449h121l-90 -449h-162z" />
<glyph unicode="&#x201d;" horiz-adv-x="772" d="M123 1004l90 448h162l-131 -448h-121zM436 1004l90 448h162l-131 -448h-121z" />
<glyph unicode="&#x201e;" horiz-adv-x="735" d="M45 -219l131 448h121l-90 -448h-162zM358 -219l131 448h121l-90 -448h-162z" />
<glyph unicode="&#x2022;" horiz-adv-x="968" d="M227 217v586h512v-586h-512z" />
<glyph unicode="&#x2026;" horiz-adv-x="1484" d="M137 0v233h168v-233h-168zM657 0v233h168v-233h-168zM1180 0v233h168v-233h-168z" />
<glyph unicode="&#x202f;" horiz-adv-x="381" />
<glyph unicode="&#x2039;" horiz-adv-x="616" d="M92 446v123l387 293v-157l-254 -193l254 -215v-160z" />
<glyph unicode="&#x203a;" horiz-adv-x="616" d="M137 137v160l254 215l-254 193v157l387 -293v-123z" />
<glyph unicode="&#x205f;" horiz-adv-x="476" />
<glyph unicode="&#x20ac;" d="M61 455v125h123v194h-123v125h132q25 248 136 360.5t349 112.5q172 0 373 -43l-7 -127q-193 35 -354 35q-166 0 -243.5 -79t-96.5 -259h586v-125h-594l-2 -194h596v-125h-588q18 -180 96 -260t246 -80q170 0 354 37l7 -129q-203 -43 -373 -43q-236 0 -348.5 113.5 t-139.5 361.5h-129z" />
<glyph unicode="&#x2122;" horiz-adv-x="1386" d="M186 1188v102h410v-102h-135v-508h-113v508h-162zM659 678v612h148l135 -426l145 426h144v-612h-107v459l-135 -428h-88l-135 428v-459h-107z" />
<glyph unicode="&#x25fc;" horiz-adv-x="1024" d="M0 0v1024h1024v-1024h-1024z" />
</font>
</defs>
</svg>
